<svg width="238" height="38" viewBox="0 0 238 38" fill="none" xmlns="http://www.w3.org/2000/svg">
<path d="M159.552 36.9249V9.31865H163.176L173.183 30.0808L183.133 9.31865H186.794V36.9057H182.999V18.0223L174.084 36.9249H172.263L163.329 18.0223V36.9249H159.552Z" fill="white"/>
<path d="M198.013 37.5C196.479 37.5 195.195 37.2188 194.159 36.6565C193.124 36.0813 192.338 35.3273 191.801 34.3943C191.277 33.4485 191.015 32.4133 191.015 31.2886C191.015 30.2406 191.201 29.3204 191.571 28.528C191.942 27.7356 192.491 27.0646 193.22 26.515C193.948 25.9527 194.843 25.499 195.904 25.1539C196.824 24.8855 197.866 24.649 199.029 24.4446C200.192 24.2401 201.412 24.0484 202.69 23.8694C203.981 23.6905 205.259 23.5116 206.525 23.3326L205.068 24.1378C205.093 22.5147 204.748 21.3133 204.032 20.5337C203.329 19.7413 202.115 19.3451 200.39 19.3451C199.304 19.3451 198.307 19.6007 197.399 20.1119C196.492 20.6104 195.859 21.4411 195.501 22.6041L191.763 21.4539C192.274 19.6774 193.246 18.2651 194.677 17.2171C196.121 16.1691 198.038 15.6451 200.428 15.6451C202.281 15.6451 203.892 15.9646 205.259 16.6036C206.64 17.2299 207.649 18.2268 208.288 19.5943C208.621 20.2717 208.825 20.9874 208.902 21.7415C208.979 22.4955 209.017 23.3071 209.017 24.1762V36.9249H205.47V32.1896L206.16 32.8031C205.304 34.3879 204.211 35.5701 202.882 36.3497C201.566 37.1166 199.943 37.5 198.013 37.5ZM198.722 34.2218C199.86 34.2218 200.837 34.0237 201.655 33.6275C202.473 33.2185 203.131 32.7009 203.63 32.0746C204.128 31.4484 204.454 30.7965 204.608 30.1192C204.825 29.5057 204.946 28.8155 204.972 28.0487C205.01 27.2819 205.029 26.6684 205.029 26.2083L206.333 26.6876C205.068 26.8793 203.917 27.0518 202.882 27.2052C201.847 27.3585 200.908 27.5119 200.064 27.6653C199.233 27.8059 198.492 27.9784 197.84 28.1829C197.291 28.3746 196.799 28.6047 196.364 28.8731C195.942 29.1414 195.604 29.4674 195.348 29.8508C195.105 30.2342 194.984 30.7007 194.984 31.2503C194.984 31.787 195.118 32.2855 195.386 32.7456C195.655 33.1929 196.064 33.5508 196.613 33.8192C197.163 34.0876 197.866 34.2218 198.722 34.2218Z" fill="white"/>
<path fill-rule="evenodd" clip-rule="evenodd" d="M237.13 25.4223C237.13 19.0696 231.98 13.9197 225.627 13.9197H224.988C218.635 13.9197 213.485 19.0696 213.485 25.4223V36.2858H220.515V31.4931C220.515 28.8461 222.66 26.7003 225.307 26.7003C227.954 26.7003 230.1 28.8461 230.1 31.4931V36.2858H237.13V25.4223Z" fill="#1BCFD9"/>
<path d="M8.01347 36.9249L0 9.31865H4.19845L10.0073 30.1959L15.8161 9.33782L20.0337 9.31865L25.8425 30.1959L31.6513 9.31865H35.8689L27.8363 36.9249H23.8487L17.9249 16.2777L12.001 36.9249H8.01347Z" fill="white"/>
<path d="M43.2102 37.5C41.6765 37.5 40.3921 37.2188 39.3568 36.6565C38.3216 36.0813 37.5356 35.3273 36.9988 34.3943C36.4748 33.4485 36.2128 32.4133 36.2128 31.2886C36.2128 30.2406 36.3981 29.3204 36.7687 28.528C37.1394 27.7356 37.689 27.0646 38.4175 26.515C39.146 25.9527 40.0406 25.499 41.1014 25.1539C42.0216 24.8855 43.0632 24.649 44.2263 24.4446C45.3893 24.2401 46.6099 24.0484 47.8879 23.8694C49.1788 23.6905 50.4568 23.5116 51.7221 23.3326L50.2651 24.1378C50.2907 22.5147 49.9456 21.3133 49.2299 20.5337C48.527 19.7413 47.3128 19.3451 45.5874 19.3451C44.501 19.3451 43.5042 19.6007 42.5967 20.1119C41.6893 20.6104 41.0567 21.4411 40.6988 22.6041L36.9605 21.4539C37.4717 19.6774 38.443 18.2651 39.8744 17.2171C41.3187 16.1691 43.2358 15.6451 45.6257 15.6451C47.4789 15.6451 49.0893 15.9646 50.4568 16.6036C51.8371 17.2299 52.8468 18.2268 53.4858 19.5943C53.8181 20.2717 54.0226 20.9874 54.0993 21.7414C54.176 22.4955 54.2143 23.3071 54.2143 24.1762V36.9249H50.6677V32.1896L51.3579 32.8031C50.5016 34.3879 49.4088 35.5701 48.0796 36.3497C46.7632 37.1166 45.1401 37.5 43.2102 37.5ZM43.9195 34.2218C45.057 34.2218 46.0347 34.0237 46.8527 33.6275C47.6706 33.2185 48.3289 32.7009 48.8273 32.0746C49.3257 31.4484 49.6517 30.7965 49.805 30.1192C50.0223 29.5057 50.1437 28.8155 50.1693 28.0487C50.2076 27.2819 50.2268 26.6684 50.2268 26.2083L51.5304 26.6876C50.2651 26.8793 49.1149 27.0518 48.0796 27.2052C47.0444 27.3585 46.105 27.5119 45.2615 27.6653C44.4308 27.8059 43.6895 27.9784 43.0377 28.1829C42.4881 28.3746 41.996 28.6047 41.5615 28.8731C41.1397 29.1414 40.801 29.4674 40.5454 29.8508C40.3026 30.2342 40.1812 30.7007 40.1812 31.2503C40.1812 31.787 40.3154 32.2855 40.5838 32.7456C40.8522 33.1929 41.2611 33.5508 41.8107 33.8192C42.3603 34.0876 43.0632 34.2218 43.9195 34.2218Z" fill="white"/>
<path d="M67.1101 37.4808C64.5923 37.4808 62.541 36.9249 60.9562 35.813C59.3714 34.701 58.4001 33.1354 58.0422 31.1161L62.1448 30.4834C62.4005 31.557 62.9884 32.4069 63.9086 33.0332C64.8416 33.6466 65.9982 33.9534 67.3785 33.9534C68.631 33.9534 69.6087 33.6978 70.3117 33.1865C71.0274 32.6753 71.3853 31.9724 71.3853 31.0777C71.3853 30.5537 71.2575 30.132 71.0018 29.8124C70.759 29.4801 70.2414 29.167 69.449 28.8731C68.6566 28.5791 67.4488 28.2149 65.8257 27.7803C64.0492 27.3202 62.6369 26.8282 61.5889 26.3041C60.5536 25.7674 59.8124 25.1475 59.3651 24.4446C58.9305 23.7288 58.7132 22.8661 58.7132 21.8565C58.7132 20.604 59.0455 19.5112 59.7101 18.5782C60.3747 17.6452 61.3077 16.9231 62.5091 16.4119C63.7233 15.9007 65.1419 15.6451 66.765 15.6451C68.3499 15.6451 69.7621 15.8943 71.0018 16.3927C72.2416 16.8912 73.2448 17.6005 74.0117 18.5207C74.7785 19.4282 75.2386 20.4953 75.392 21.7223L71.2894 22.4699C71.1488 21.4731 70.6823 20.687 69.8899 20.1119C69.0975 19.5368 68.0687 19.2237 66.8034 19.1725C65.5892 19.1214 64.6051 19.3259 63.8511 19.786C63.097 20.2333 62.72 20.8532 62.72 21.6456C62.72 22.1057 62.8606 22.4955 63.1417 22.815C63.4357 23.1345 63.998 23.4413 64.8288 23.7352C65.6595 24.0292 66.8865 24.3807 68.5096 24.7896C70.2478 25.237 71.6281 25.7354 72.6505 26.285C73.673 26.8218 74.4015 27.4672 74.836 28.2212C75.2834 28.9625 75.507 29.8636 75.507 30.9244C75.507 32.9693 74.7594 34.5732 73.264 35.7363C71.7815 36.8993 69.7302 37.4808 67.1101 37.4808Z" fill="white"/>
<path d="M81.0889 0.5H89.3963V36.2858H81.0889V0.5Z" fill="#1BCFD9"/>
<path fill-rule="evenodd" clip-rule="evenodd" d="M111.762 25.4223C111.762 19.0696 106.613 13.9197 100.26 13.9197H99.6208C93.2681 13.9197 88.1182 19.0696 88.1182 25.4223V36.2858H95.1476V31.4931C95.1476 28.8461 97.2934 26.7003 99.9403 26.7003C102.587 26.7003 104.733 28.8461 104.733 31.4931V36.2858H111.762V25.4223Z" fill="#1BCFD9"/>
<path d="M123.948 37.5C121.89 37.5 120.081 37.0527 118.522 36.158C116.976 35.2506 115.768 33.9917 114.899 32.3813C114.043 30.7582 113.614 28.8794 113.614 26.7451C113.614 24.4829 114.036 22.5211 114.88 20.8596C115.736 19.1981 116.925 17.9136 118.445 17.0062C119.966 16.0988 121.737 15.6451 123.756 15.6451C125.865 15.6451 127.66 16.1371 129.143 17.1212C130.625 18.0926 131.731 19.4793 132.459 21.2813C133.201 23.0834 133.495 25.2242 133.341 27.7036H129.335V26.2466C129.309 23.8439 128.849 22.0674 127.954 20.9171C127.072 19.7668 125.724 19.1917 123.909 19.1917C121.903 19.1917 120.395 19.8243 119.385 21.0896C118.375 22.3549 117.87 24.1826 117.87 26.5725C117.87 28.8475 118.375 30.6112 119.385 31.8637C120.395 33.1035 121.852 33.7233 123.756 33.7233C125.008 33.7233 126.088 33.4421 126.996 32.8798C127.916 32.3047 128.632 31.4867 129.143 30.4259L133.073 31.672C132.268 33.5252 131.047 34.963 129.411 35.9855C127.775 36.9952 125.954 37.5 123.948 37.5ZM116.567 27.7036V24.5788H131.348V27.7036H116.567Z" fill="white"/>
<path d="M137.643 36.9249V16.2202H141.208V21.243L140.71 20.5912C140.965 19.9266 141.298 19.3195 141.707 18.7699C142.116 18.2076 142.589 17.7475 143.125 17.3896C143.649 17.0062 144.231 16.7123 144.87 16.5078C145.522 16.2905 146.186 16.1627 146.864 16.1244C147.541 16.0732 148.193 16.1052 148.819 16.2202V19.9777C148.142 19.7988 147.388 19.7477 146.557 19.8244C145.739 19.901 144.985 20.163 144.295 20.6104C143.643 21.0321 143.125 21.5433 142.742 22.144C142.371 22.7447 142.103 23.4157 141.937 24.157C141.771 24.8855 141.688 25.6587 141.688 26.4767V36.9249H137.643Z" fill="white"/>
</svg>
